# xmcd
#
# Track frame offsets: 
#        150
#        15597
#        34090
#        49730
#        66132
#        79236
#        97202
#        113042
#        130240
#        146107
#        162800
#        180697
#        193639
#        211677
#        228818
#        244235
#        258903
#        273824
#        286097
#        309238
#
# Disc length: 4285 seconds
#
# Revision: 2
# Processed by: cddbd v1.5.2PL0 Copyright (c) Steve Scherf et al.
# Submitted via: ExactAudioCopyFreeDBPlugin 1.0
#
DISCID=1010bb14
DTITLE=Various Artist - Promo Only Country Radio May 2006
DYEAR=2006
DGENRE=Country
TTITLE0=Kenny Chesney - Summertime
TTITLE1=Mark Wills - Hank
TTITLE2=Tim McGraw - When The Stars Go Blue
TTITLE3=Brad Paisley - The World
TTITLE4=Ray Scott - Gone Either Way (Album Version)
TTITLE5=Dixie Chicks - Not Ready To Make Nice (Album Version)
TTITLE6=The Wreckers (Micelle Branch and Jessica Harp) - Leave The Piece
TTITLE6=s (Album Version)
TTITLE7=Miranda Lambert - New Strings
TTITLE8=The Lost Trailers - Call Me Crazy
TTITLE9=Carrie Underwood - Don't Forget To Remember Me
TTITLE10=Diamond Rio - God Only Cries
TTITLE11=Ashley Monroe - Satisfied
TTITLE12=Jace Everett - Nowehere In The Neighborhood
TTITLE13=Craig Hand - Direct Connect
TTITLE14=Hank Williams III - Low Down
TTITLE15=Memarie - The Hole In Willie's Guitar
TTITLE16=Pirates Of The Mississippi - Drinkin' Money (T G I Party Time
TTITLE16=)
TTITLE17=Ray Stevens - The Battle Of New Orleans
TTITLE18=Brooks and Dunn - Believe (Live From The Dr. Phil Show)
TTITLE19=Joe Patrick - I'll Know When I Get There (Single Version)
EXTD=
EXTT0=
EXTT1=
EXTT2=
EXTT3=
EXTT4=
EXTT5=
EXTT6=
EXTT7=
EXTT8=
EXTT9=
EXTT10=
EXTT11=
EXTT12=
EXTT13=
EXTT14=
EXTT15=
EXTT16=
EXTT17=
EXTT18=
EXTT19=
PLAYORDER=
